<svg xmlns="http://www.w3.org/2000/svg" viewBox="0 -100 935 935"><style>.circle,.circle-shadow,.straight-shadow{fill:#37474f}.flame{fill:#80cbc4}.flame path{opacity:.5}.light{opacity:.6}.logo-text{fill:#fff}.logo-font{text-align:start;font-family:Roboto;font-style:normal;font-variant:normal;font-weight:300;font-size:43px;letter-spacing:-1.5px}</style><path class="circle opacity" d="M934.968 367.484A467.484 467.484 0 1 1 0 367.484a467.484 467.484 0 1 1 934.968 0" opacity=".95"/><g transform="matrix(1.33184 0 0 1.33184 45.08 -91.368)"><g><g class="flame"><path d="M318.56 11.056S479.585 99.398 485.292 177.79c10.064 138.22 -188.875 195.44 -201.28 333.47 -5.556 61.8 35.745 166.735 35.745 166.735S155.533 591.397 149.425 512.46C138.652 373.25 341.445 316.823 354.305 177.79 360.019 116.005 318.558 11.056 318.558 11.056z" opacity=".5"/><path d="M365.725 40.35s143.535 92.18 148.622 162.056c8.97 123.205 -168.357 160.773 -179.415 283.81 -4.95 55.085 31.863 148.62 31.863 148.62S220.41 557.646 214.965 487.284C205.363 363.197 386.125 312.9 397.59 188.97 402.682 133.898 365.726 40.35 365.726 40.35z" opacity=".5"/><path d="M270.77 54.767s143.535 78.746 148.622 148.622c8.97 123.204 -168.357 174.207 -179.415 297.243 -4.952 55.086 31.862 148.622 31.862 148.622S125.454 558.63 120.01 488.267C110.407 364.18 291.17 327.317 302.633 203.389 307.727 148.314 270.77 54.766 270.77 54.766z" opacity=".5"/></g></g></g></svg>